<svg xmlns="http://www.w3.org/2000/svg" viewBox="0 0 59.18 59.18"><defs><style>.cls-1{fill:#fefaec;}</style></defs><title>facebook</title><g id="Layer_2" data-name="Layer 2"><g id="Layer_1-2" data-name="Layer 1"><path class="cls-1" d="M52.84,0H6.34A6.34,6.34,0,0,0,0,6.34v46.5a6.34,6.34,0,0,0,6.34,6.34H24.47V39.06H16.15V29.59h8.32V22.37c0-8.21,4.89-12.74,12.37-12.74a50.41,50.41,0,0,1,7.34.64v8.05H40.05c-4.07,0-5.34,2.53-5.34,5.12v6.15h9.08l-1.45,9.47H34.71V59.18H52.84a6.34,6.34,0,0,0,6.34-6.34V6.34A6.34,6.34,0,0,0,52.84,0Z"/></g></g></svg>