<svg xmlns="http://www.w3.org/2000/svg" viewBox="0 0 60.72 60.72"><defs><style>.cls-1{fill:#f7f0dc;}</style></defs><title>Asset 1</title><g id="Layer_2" data-name="Layer 2"><g id="Layer_1-2" data-name="Layer 1"><path class="cls-1" d="M30.36,23.13a7.23,7.23,0,1,0,7.23,7.23A7.23,7.23,0,0,0,30.36,23.13Zm16.9-5.56a7.35,7.35,0,0,0-4.12-4.12c-2.85-1.12-9.62-.87-12.78-.87s-9.93-.26-12.78.87a7.32,7.32,0,0,0-4.12,4.12c-1.13,2.85-.88,9.63-.88,12.79s-.25,9.93.88,12.78a7.34,7.34,0,0,0,4.12,4.13c2.85,1.12,9.63.87,12.78.87s9.93.26,12.79-.87a7.37,7.37,0,0,0,4.12-4.13c1.13-2.84.87-9.63.87-12.78s.26-9.93-.87-12.79Zm-16.9,23.9A11.11,11.11,0,1,1,41.47,30.36,11.1,11.1,0,0,1,30.36,41.47Zm11.57-20.1a2.59,2.59,0,1,1,2.59-2.59h0A2.58,2.58,0,0,1,42,21.38h0ZM54.21,0H6.51A6.5,6.5,0,0,0,0,6.51v47.7a6.5,6.5,0,0,0,6.51,6.51h47.7a6.5,6.5,0,0,0,6.51-6.51V6.51A6.5,6.5,0,0,0,54.21,0ZM51.89,39.3c-.17,3.48-1,6.56-3.5,9.08s-5.61,3.34-9.08,3.51-14.31.2-17.89,0-6.54-1-9.08-3.51S9,42.77,8.83,39.3s-.2-14.31,0-17.89,1-6.55,3.51-9.08S18,9,21.42,8.84s14.31-.2,17.89,0,6.55,1,9.08,3.5,3.34,5.62,3.5,9.09S52.09,35.72,51.89,39.3Z"/></g></g></svg>