<svg xmlns="http://www.w3.org/2000/svg" viewBox="0 0 96.2 96.2"><defs><style>.cls-1{fill:#ffde00;}</style></defs><title>mail_icon_yellow</title><g id="Layer_2" data-name="Layer 2"><g id="Layer_1-2" data-name="Layer 1"><polygon class="cls-1" points="28.16 37.18 28.16 59.01 39.08 48.09 28.16 37.18"/><path class="cls-1" d="M54.65,53.56a7.15,7.15,0,0,1-10.1,0l-2.1-2.1L31.53,62.39H67.67L56.75,51.46Z"/><path class="cls-1" d="M51.28,50.19,67.67,33.81H31.53L47.92,50.19A2.37,2.37,0,0,0,51.28,50.19Z"/><path class="cls-1" d="M48.1,0h0A48.09,48.09,0,0,0,0,48.1H0A48.1,48.1,0,0,0,48.1,96.2h0A48.11,48.11,0,0,0,96.2,48.1h0A48.1,48.1,0,0,0,48.1,0ZM75.8,60a7.15,7.15,0,0,1-7.15,7.14H30.55A7.15,7.15,0,0,1,23.4,60V36.19A7.16,7.16,0,0,1,30.55,29h38.1a7.17,7.17,0,0,1,7.15,7.15Z"/><polygon class="cls-1" points="71.03 59.01 71.03 37.18 60.12 48.09 71.03 59.01"/></g></g></svg>