<svg xmlns="http://www.w3.org/2000/svg" viewBox="0 0 55.61 66.87"><defs><style>.cls-1,.cls-3{fill:#f7f0dc;}.cls-2{fill:#e4067d;}.cls-3{font-size:16px;font-family:Poppins-ExtraBold, Poppins;font-weight:800;}</style></defs><title>Asset 1</title><g id="Layer_2" data-name="Layer 2"><g id="Layer_1-2" data-name="Layer 1"><path class="cls-1" d="M38.64,17.57V14.05a14.05,14.05,0,0,0-28.1,0v3.52H0V47.43a8.78,8.78,0,0,0,8.78,8.78H40.4a8.78,8.78,0,0,0,8.78-8.78V17.57ZM17.57,14.05a7,7,0,0,1,14.05,0v3.52h-14ZM35.13,27.23a2.64,2.64,0,1,1,2.64-2.64A2.64,2.64,0,0,1,35.13,27.23Zm-21.08,0c-1.45,0-1.45-5.27,0-5.27a2.64,2.64,0,1,1,0,5.27Z"/><circle class="cls-2" cx="46.78" cy="51.54" r="8.83"/><text class="cls-3" transform="translate(43.78 57.01) scale(0.97 1)">1</text></g></g></svg>